<svg width="1024" height="1024" viewBox="0 0 1024 1024" fill="none" xmlns="http://www.w3.org/2000/svg">
<rect width="1024" height="1024" fill="#F7E7B3"/>
<path d="M754.188 526.062C754.188 527.625 754.188 528.406 754.188 529.969C751.844 548.719 733.094 559.656 714.344 557.312C710.438 556.531 706.531 555.75 702.625 554.188L673.719 540.125C660.438 533.875 644.812 533.094 630.75 539.344L599.5 552.625C593.25 554.969 586.219 556.531 579.187 556.531C571.375 556.531 563.562 554.969 556.531 551.844L533.094 540.906C519.031 534.656 502.625 534.656 488.562 540.906L466.688 551.063C459.656 554.188 451.844 555.75 444.031 555.75C436.219 555.75 429.188 554.188 421.375 551.063L398.719 540.125C384.656 533.875 369.031 533.875 354.969 539.344L320.594 554.969C316.688 556.531 312.781 557.313 308.875 558.094C290.125 560.438 271.375 548.719 269.031 529.969C269.031 528.406 269.031 527.625 269.031 526.062C269.031 516.687 272.938 507.313 279.969 501.063C287 494.813 296.375 490.906 306.531 490.906H715.906C737.781 490.906 754.188 506.531 754.188 526.062Z" fill="#A7DD73"/>
<path d="M713.562 560.438C727.625 563.563 738.562 576.062 738.562 590.906C738.562 599.5 735.438 607.313 729.188 612.781C722.938 618.25 715.906 621.375 707.312 621.375H684.656H335.437H316.688C299.5 621.375 285.438 607.312 285.438 590.125C285.438 581.531 288.562 573.719 294.812 568.25C298.719 564.344 304.187 561.219 310.437 559.656C312.781 559.656 314.344 558.875 316.688 558.875H444.812H579.188H707.312C709.656 559.656 712 559.656 713.562 560.438Z" fill="#E15D23"/>
<path d="M714.344 557.312V559.656C712 559.656 710.437 558.875 708.094 558.875H578.406V555.75C585.438 555.75 592.469 554.187 598.719 551.844L629.969 538.563C644.031 533.094 659.656 533.094 672.937 539.344L701.844 553.406C706.531 555.75 710.438 557.312 714.344 557.312Z" fill="#7C4E3E"/>
<path d="M704.188 640.125V660.438C704.188 682.312 687 699.5 665.125 699.5H355.75C333.875 699.5 316.688 682.312 316.688 660.438V640.125C316.688 629.969 325.281 621.375 335.437 621.375H685.438C695.594 621.375 704.188 629.969 704.188 640.125Z" fill="#F9B84E"/>
<path d="M708.094 458.094C708.094 466.688 704.188 475.281 698.719 480.75C692.469 487 684.656 490.125 675.281 490.125H354.188C336.219 490.125 321.375 475.281 321.375 457.312C321.375 413.562 338.562 374.5 367.469 346.375C396.375 318.25 435.438 301.062 478.406 301.062H551.062C637.781 301.062 708.094 371.375 708.094 458.094ZM613.562 358.094C613.562 353.406 609.656 350.281 605.75 350.281C601.844 350.281 597.938 353.406 597.938 358.094C597.938 362.781 601.844 365.906 605.75 365.906C609.656 365.906 613.562 362 613.562 358.094ZM582.312 397.156C582.312 392.469 578.406 389.344 574.5 389.344C570.594 389.344 566.688 392.469 566.688 397.156C566.688 401.062 570.594 404.969 574.5 404.969C578.406 404.969 582.312 401.062 582.312 397.156ZM551.062 358.094C551.062 353.406 547.156 350.281 543.25 350.281C539.344 350.281 535.438 353.406 535.438 358.094C535.438 362.781 539.344 365.906 543.25 365.906C547.156 365.906 551.062 362 551.062 358.094ZM519.812 397.156C519.812 392.469 515.906 389.344 512 389.344C508.094 389.344 504.188 392.469 504.188 397.156C504.188 401.062 508.094 404.969 512 404.969C515.906 404.969 519.812 401.062 519.812 397.156ZM488.562 358.094C488.562 353.406 484.656 350.281 480.75 350.281C476.844 350.281 472.938 353.406 472.938 358.094C472.938 362.781 476.844 365.906 480.75 365.906C484.656 365.906 488.562 362 488.562 358.094ZM457.312 397.156C457.312 392.469 453.406 389.344 449.5 389.344C445.594 389.344 441.688 392.469 441.688 397.156C441.688 401.062 445.594 404.969 449.5 404.969C453.406 404.969 457.312 401.062 457.312 397.156ZM426.062 358.094C426.062 353.406 422.156 350.281 418.25 350.281C414.344 350.281 410.438 353.406 410.438 358.094C410.438 362.781 414.344 365.906 418.25 365.906C422.156 365.906 426.062 362 426.062 358.094Z" fill="#F9B84E"/>
<path d="M605.75 365.906C610.065 365.906 613.562 362.408 613.562 358.094C613.562 353.779 610.065 350.281 605.75 350.281C601.435 350.281 597.938 353.779 597.938 358.094C597.938 362.408 601.435 365.906 605.75 365.906Z" fill="#FFFFD2"/>
<path d="M578.406 556.531V559.656H444.031V555.75C451.844 555.75 459.656 554.187 466.688 551.062L488.563 540.906C502.625 534.656 519.031 534.656 533.094 540.906L556.531 551.844C562.781 554.187 570.594 556.531 578.406 556.531Z" fill="#7C4E3E"/>
<path d="M574.5 404.969C578.815 404.969 582.312 401.471 582.312 397.156C582.312 392.842 578.815 389.344 574.5 389.344C570.185 389.344 566.688 392.842 566.688 397.156C566.688 401.471 570.185 404.969 574.5 404.969Z" fill="#FFFFD2"/>
<path d="M543.25 365.906C547.565 365.906 551.062 362.408 551.062 358.094C551.062 353.779 547.565 350.281 543.25 350.281C538.935 350.281 535.438 353.779 535.438 358.094C535.438 362.408 538.935 365.906 543.25 365.906Z" fill="#FFFFD2"/>
<path d="M512 404.969C516.315 404.969 519.812 401.471 519.812 397.156C519.812 392.842 516.315 389.344 512 389.344C507.685 389.344 504.188 392.842 504.188 397.156C504.188 401.471 507.685 404.969 512 404.969Z" fill="#FFFFD2"/>
<path d="M480.75 365.906C485.065 365.906 488.562 362.408 488.562 358.094C488.562 353.779 485.065 350.281 480.75 350.281C476.435 350.281 472.938 353.779 472.938 358.094C472.938 362.408 476.435 365.906 480.75 365.906Z" fill="#FFFFD2"/>
<path d="M449.5 404.969C453.815 404.969 457.312 401.471 457.312 397.156C457.312 392.842 453.815 389.344 449.5 389.344C445.185 389.344 441.688 392.842 441.688 397.156C441.688 401.471 445.185 404.969 449.5 404.969Z" fill="#FFFFD2"/>
<path d="M444.031 555.75V559.656H316.688C314.344 559.656 312.781 559.656 310.438 560.438V558.094C314.344 558.094 318.25 556.531 322.156 554.969L356.531 539.344C370.594 533.094 386.219 533.094 400.281 540.125L422.938 551.063C429.188 554.188 437 555.75 444.031 555.75Z" fill="#7C4E3E"/>
<path d="M418.25 365.906C422.565 365.906 426.062 362.408 426.062 358.094C426.062 353.779 422.565 350.281 418.25 350.281C413.935 350.281 410.438 353.779 410.438 358.094C410.438 362.408 413.935 365.906 418.25 365.906Z" fill="#FFFFD2"/>
<path d="M676.062 498.719H354.188C331.531 498.719 313.562 480.75 313.562 458.094C313.562 414.344 330.75 372.938 362 341.688C393.25 310.437 434.656 293.25 478.406 293.25H551.062C641.688 293.25 715.906 367.469 715.906 458.094C715.906 469.031 712 479.188 704.188 487C696.375 494.031 686.219 498.719 676.062 498.719ZM478.406 308.875C438.562 308.875 401.062 324.5 372.938 352.625C344.812 380.75 329.188 418.25 329.188 458.094C329.188 471.375 340.125 483.094 354.188 483.094H676.062C682.312 483.094 688.563 480.75 693.25 476.062C697.938 471.375 700.281 465.125 700.281 458.875C700.281 376.062 633.875 308.875 551.062 308.875H478.406Z" fill="#2C2C3D"/>
<path d="M665.125 707.312H355.75C329.969 707.312 308.875 686.219 308.875 660.438V640.125C308.875 625.281 320.594 613.562 335.437 613.562C340.125 613.562 343.25 616.687 343.25 621.375C343.25 626.062 340.125 629.188 335.437 629.188C329.187 629.188 324.5 633.875 324.5 640.125V660.438C324.5 677.625 338.562 691.688 355.75 691.688H665.125C682.312 691.688 696.375 677.625 696.375 660.438V640.125C696.375 633.875 691.688 629.188 685.438 629.188C680.75 629.188 677.625 626.062 677.625 621.375C677.625 616.687 680.75 613.562 685.438 613.562C700.281 613.562 712 625.281 712 640.125V660.438C712 686.219 690.906 707.312 665.125 707.312Z" fill="#2C2C3D"/>
<path d="M305.75 565.906C283.875 565.906 265.125 551.063 262.781 530.75C262.781 529.188 262.781 527.625 262.781 526.062C262.781 514.344 267.469 503.406 276.062 495.594C284.656 487.781 295.594 483.094 308.094 483.094H717.469C742.469 483.094 762.781 502.625 762.781 526.062C762.781 527.625 762.781 529.188 762.781 530.75C759.656 552.625 738.563 568.25 714.344 565.125C708.875 564.344 704.188 562.781 700.281 561.219L671.375 547.156C660.438 541.688 646.375 541.688 634.656 546.375L603.406 559.656C587 565.906 569.813 565.906 554.188 558.875L530.75 547.937C519.031 542.469 504.188 542.469 492.469 547.937L470.594 558.094C454.969 565.125 435.438 565.906 419.031 558.094L396.375 547.156C384.656 541.688 370.594 541.688 359.656 547.156L325.281 562.781C320.594 564.344 315.906 565.906 311.219 566.688C308.875 565.906 307.312 565.906 305.75 565.906ZM307.313 498.719C299.5 498.719 291.688 501.844 286.219 506.531C280.75 512 277.625 519.031 277.625 526.062C277.625 526.844 277.625 528.406 277.625 529.188C279.188 543.25 293.25 550.281 304.969 550.281C306.531 550.281 307.312 550.281 308.875 550.281C312 550.281 315.125 549.5 318.25 547.937L352.625 532.312C368.25 525.281 387 525.281 402.625 533.094L425.281 544.031C437 549.5 451.844 549.5 463.562 544.031L485.438 533.875C501.062 526.062 520.594 526.844 537 533.875L560.438 544.813C572.156 550.281 584.656 550.281 596.375 545.594L627.625 532.312C643.25 526.062 662 526.062 676.844 533.875L705.75 547.937C708.875 549.5 712 550.281 715.125 550.281C716.688 550.281 717.469 550.281 719.031 550.281C730.75 550.281 744.812 543.25 746.375 529.188C746.375 528.406 746.375 526.844 746.375 526.062C746.375 511.219 733.094 498.719 716.688 498.719H307.313Z" fill="#2C2C3D"/>
<path d="M707.312 629.188H316.688C295.594 629.188 277.625 612 277.625 590.125C277.625 579.969 281.531 569.813 289.344 562.781C294.031 557.313 301.062 554.188 308.875 552.625C312 551.844 314.344 551.844 316.688 551.844H707.312C709.656 551.844 712 551.844 715.125 552.625C733.094 556.531 746.375 572.156 746.375 590.906C746.375 601.063 742.469 611.219 734.656 618.25C727.625 625.281 718.25 629.188 707.312 629.188ZM316.688 567.469C315.125 567.469 313.562 567.469 312 568.25C307.312 569.031 303.406 571.375 300.281 574.5C295.594 578.406 293.25 583.875 293.25 590.125C293.25 602.625 303.406 613.563 316.688 613.563H707.312C713.562 613.563 719.031 611.219 723.719 606.531C728.406 601.844 730.75 596.375 730.75 590.125C730.75 579.188 722.938 569.813 712 567.469C710.438 567.469 708.875 566.688 707.312 566.688H316.688V567.469Z" fill="#2C2C3D"/>
</svg>
